<svg xmlns="http://www.w3.org/2000/svg" viewBox="0 0 64 64">
  <rect width="64" height="64" rx="14" fill="#11100f" />
  <path
    fill="#ff4d2e"
    d="M32 10c-7.5 0-13.6 5.9-13.6 13.3 0 4.1 1.9 7.8 4.8 10.3 1.1.9.5 2.7-1 2.4-5.3-1.3-8.1-7-15.9-7.9-1.4-.2-2.2 1.5-1.2 2.4 4.5 3.9 5.6 9.3 10.7 12.3 1.1.6.6 2.3-.7 2.3-3.8.1-6.6-1.1-9.8-2.6-1.4-.6-2.6.9-1.7 2 4.6 5.2 10.7 7.9 17.4 6.5 4.7-1 6.5-5.2 11.1-5.2s6.3 4.2 11.1 5.2c6.7 1.4 12.8-1.3 17.4-6.5.9-1.1-.3-2.6-1.7-2-3.2 1.5-5.9 2.7-9.8 2.6-1.3 0-1.8-1.6-.7-2.3 5.1-3 6.2-8.4 10.7-12.3 1-.9.2-2.6-1.2-2.4-7.8.9-10.6 6.6-15.9 7.9-1.5.3-2.1-1.5-1-2.4 3-2.5 4.8-6.2 4.8-10.3C45.6 15.9 39.5 10 32 10Z"
  />
</svg>
